<svg width="859" height="294" viewBox="0 0 859 294" fill="none" xmlns="http://www.w3.org/2000/svg">
<path fill-rule="evenodd" clip-rule="evenodd" d="M23 23H836V271H23V23ZM0 294V0H859V294H0ZM135.447 64.7989H104.779L85 231.201H109.668L112.557 194.997H126.336L129.225 231.201H155.226L135.447 64.7989ZM114.335 172.96L117.002 138.78L119.002 109.997H119.669L121.669 138.78L124.558 172.96H114.335ZM183.277 231.201H209.723V168.463H217.945C236.835 168.463 248.391 157.22 248.391 137.206V96.2804C248.391 76.0423 236.835 64.7989 217.945 64.7989H183.277V231.201ZM215.723 148.45H209.945V84.8122H215.723C220.168 84.8122 221.945 88.8598 221.945 96.2804V137.206C221.945 144.402 220.168 148.45 215.723 148.45ZM278.854 64.7989V231.201H330.412V209.164H305.299V158.119H327.745V136.082H305.299V86.836H330.412V64.7989H278.854ZM421.482 199.495V163.741H396.592V201.743C396.592 208.489 394.814 212.537 390.591 212.537C386.147 212.537 384.369 208.489 384.369 201.743V94.4815C384.369 87.5106 386.147 83.463 390.591 83.463C394.814 83.463 396.592 87.5106 396.592 94.4815V130.91H421.482V96.5053C421.482 74.918 410.815 63 390.591 63C370.368 63 357.923 74.918 357.923 96.5053V199.495C357.923 221.082 370.368 233 390.591 233C410.815 233 421.482 221.082 421.482 199.495ZM493.105 158.569V231.201H519.551V64.7989H493.105V135.857H478.882V64.7989H452.214V231.201H478.882V158.569H493.105ZM597.928 64.7989H567.26L547.481 231.201H572.149L575.038 194.997H588.817L591.706 231.201H617.707L597.928 64.7989ZM576.816 172.96L579.483 138.78L581.483 109.997H582.15L584.15 138.78L587.039 172.96H576.816ZM645.758 64.7989V231.201H672.426V64.7989H645.758ZM746.665 148.225L732.665 64.7989H704.441V231.201H727.331V133.833H727.775L746.443 231.201H770V64.7989H747.11V148.225H746.665Z" fill="black"/>
</svg>
